<svg xmlns="http://www.w3.org/2000/svg" xmlns:xlink="http://www.w3.org/1999/xlink" viewBox="0 0 117.03 117.03"><defs><style>.cls-1{fill:none;}.cls-2{clip-path:url(#clip-path);}.cls-3{fill:url(#Unbenannter_Verlauf_1160);}.cls-4{fill:#f07319;}</style><clipPath id="clip-path"><rect class="cls-1" width="117.03" height="117.03"/></clipPath><radialGradient id="Unbenannter_Verlauf_1160" cx="58.51" cy="-61.45" r="35.58" gradientTransform="translate(0 108.95) scale(1 0.82)" gradientUnits="userSpaceOnUse"><stop offset="0" stop-color="#f07319"/><stop offset="1" stop-color="#d96716"/></radialGradient></defs><title>-</title><g id="exoprt"><g id="select_green"><g class="cls-2"><path class="cls-3" d="M58.51,81.41a9.79,9.79,0,0,1-7.14-3.06l-24.86-26a9.89,9.89,0,0,1,7.15-16.72H83.37a9.89,9.89,0,0,1,7.15,16.72l-24.86,26A9.8,9.8,0,0,1,58.51,81.41Z"/><path class="cls-4" d="M83.37,37.62A7.89,7.89,0,0,1,89.07,51L64.22,77a7.89,7.89,0,0,1-11.41,0L28,51a7.89,7.89,0,0,1,5.7-13.34H83.37m0-4H33.66a11.89,11.89,0,0,0-8.6,20.1l24.86,26a11.88,11.88,0,0,0,17.19,0L92,53.72a11.88,11.88,0,0,0-8.59-20.1Z"/></g></g></g></svg>