<svg xmlns="http://www.w3.org/2000/svg" xmlns:xlink="http://www.w3.org/1999/xlink" viewBox="0 0 605.66 94.7"><defs><style>.cls-1{fill:url(#Unbenannter_Verlauf_973);}.cls-2{fill:#165366;}.cls-3{fill:url(#Unbenannter_Verlauf_1251);}.cls-4{fill:#3baacc;}</style><linearGradient id="Unbenannter_Verlauf_973" x1="69.45" y1="-87.68" x2="537.26" y2="182.41" gradientUnits="userSpaceOnUse"><stop offset="0.15" stop-color="#4093ad"/><stop offset="0.58" stop-color="#4093ad"/><stop offset="0.83" stop-color="#2d82a0"/><stop offset="1" stop-color="#1e7596"/></linearGradient><linearGradient id="Unbenannter_Verlauf_1251" x1="21.24" y1="-4.18" x2="193.73" y2="95.41" gradientUnits="userSpaceOnUse"><stop offset="0.15" stop-color="#0f4f63"/><stop offset="0.58" stop-color="#0f4f63"/><stop offset="0.92" stop-color="#033c51"/><stop offset="1" stop-color="#00374c"/></linearGradient></defs><title>input</title><g id="exoprt"><rect class="cls-1" x="5.26" y="4.31" width="596.19" height="86.12" rx="26.21"/><path class="cls-2" d="M575.24,8.41a22.11,22.11,0,0,1,22.11,22.11v33.7a22.11,22.11,0,0,1-22.11,22.11H31.47A22.11,22.11,0,0,1,9.36,64.22V30.52A22.11,22.11,0,0,1,31.47,8.41H575.24m0-8.2H31.47A30.34,30.34,0,0,0,1.16,30.52v33.7A30.35,30.35,0,0,0,31.47,94.53H575.24a30.34,30.34,0,0,0,30.31-30.31V30.52A30.34,30.34,0,0,0,575.24.21Z"/><path class="cls-3" d="M31.47,90.43A26.24,26.24,0,0,1,5.26,64.22V30.52A26.24,26.24,0,0,1,31.47,4.31H196.61V90.43Z"/><path class="cls-2" d="M192.5,8.41V86.33h-161A22.11,22.11,0,0,1,9.36,64.22V30.52A22.11,22.11,0,0,1,31.47,8.41h161m8.21-8.2H31.47A30.34,30.34,0,0,0,1.16,30.52v33.7A30.35,30.35,0,0,0,31.47,94.53H200.71V.21Z"/><path class="cls-4" d="M42.79,43.6q0,9.52-6.67,9.52H31.5v7.93a2.77,2.77,0,0,1-1,2.22,3.48,3.48,0,0,1-1,.56,3.55,3.55,0,0,1-1.15.19A3.64,3.64,0,0,1,26,63.27a2.59,2.59,0,0,1-1-2.22V35.67c0-2,.85-3,2.54-3h8.55a7.56,7.56,0,0,1,3.14.58,4.49,4.49,0,0,1,2.07,1.89,9.87,9.87,0,0,1,1.11,3.37A31.21,31.21,0,0,1,42.79,43.6Zm-11.29.85h4.24c.62,0,.92-.56.92-1.69s-.3-1.7-.92-1.7H31.5Z"/><path class="cls-4" d="M51,55.35H57.7c1.72,0,2.58,1,2.58,3v1.92Q60.28,64,57.7,64H47.22c-1.72,0-2.58-1-2.58-2.93V35.67a2.88,2.88,0,0,1,1-2.39,3.34,3.34,0,0,1,2.12-.77,3.66,3.66,0,0,1,1.19.19,2.92,2.92,0,0,1,1,.6,3.19,3.19,0,0,1,.76,1A3.13,3.13,0,0,1,51,35.67Z"/><path class="cls-4" d="M61.86,54.39a36.25,36.25,0,0,1,.31-5.18,9.42,9.42,0,0,1,1.11-3.51,4.89,4.89,0,0,1,2.18-2A8.34,8.34,0,0,1,69,43.06h2.81a4.36,4.36,0,0,1,1.77.39,2,2,0,0,1,1.08.85c-.28-2-.94-3.06-2-3.09h-5a4.44,4.44,0,0,1-1.84-.36,3.61,3.61,0,0,1-1.33-1,4.36,4.36,0,0,1-.79-1.39,4.73,4.73,0,0,1-.27-1.58,4.93,4.93,0,0,1,.27-1.6,4.3,4.3,0,0,1,.79-1.4,3.91,3.91,0,0,1,1.33-1,4.29,4.29,0,0,1,1.84-.38h4.9a9.7,9.7,0,0,1,3.81.65,5.23,5.23,0,0,1,2.39,2.1A10,10,0,0,1,80,39a37.1,37.1,0,0,1,.35,5.47V52A42,42,0,0,1,80,57.82a10.29,10.29,0,0,1-1.14,3.7,4.47,4.47,0,0,1-2.17,2,8.81,8.81,0,0,1-3.45.58H69a8.12,8.12,0,0,1-3.39-.62,5.16,5.16,0,0,1-2.18-1.85,8.33,8.33,0,0,1-1.18-3A22.43,22.43,0,0,1,61.86,54.39Zm11.67,1.08c.92,0,1.39-.62,1.39-1.85s-.47-1.89-1.39-1.89H68.6c-.85,0-1.27.63-1.27,1.89s.41,1.85,1.23,1.85Z"/><path class="cls-4" d="M96.57,49.92V61.05c0,2-.85,2.93-2.55,2.93a9.53,9.53,0,0,1-2.27-.21,2.5,2.5,0,0,1-1.19-.6,1.6,1.6,0,0,1-.47-.92,8.82,8.82,0,0,1-.07-1.2V49.92h.07L84.28,37.86a4.28,4.28,0,0,1-.62-2A2.6,2.6,0,0,1,84,34.41a3.51,3.51,0,0,1,.92-1,4.16,4.16,0,0,1,1.23-.61,4.49,4.49,0,0,1,1.33-.21,3.75,3.75,0,0,1,1.64.36,2.11,2.11,0,0,1,1.06,1.14l3.08,7.63,2.93-7.4a2.91,2.91,0,0,1,1.19-1.45A3.2,3.2,0,0,1,99,32.43a3.5,3.5,0,0,1,1.35.27,4,4,0,0,1,1.18.75,3.8,3.8,0,0,1,.84,1.16,3.31,3.31,0,0,1,.33,1.48,4.65,4.65,0,0,1-.5,2Z"/><path class="cls-4" d="M124.11,42.41a33.47,33.47,0,0,1-.35,5.22,10,10,0,0,1-1.15,3.5,4.75,4.75,0,0,1-2.18,2,8.32,8.32,0,0,1-3.41.61h-2.85a4.27,4.27,0,0,1-1.73-.38,2.2,2.2,0,0,1-1.12-.85c.28,2,1,3.06,2,3.08h4.93a4.33,4.33,0,0,1,1.83.37,3.61,3.61,0,0,1,1.31,1,4.36,4.36,0,0,1,.79,1.39,4.73,4.73,0,0,1,.27,1.58,4.93,4.93,0,0,1-.27,1.6,4.3,4.3,0,0,1-.79,1.4,3.61,3.61,0,0,1-1.31,1,4.18,4.18,0,0,1-1.83.37H113.4a9.84,9.84,0,0,1-3.83-.65,5.19,5.19,0,0,1-2.41-2.08,9.77,9.77,0,0,1-1.23-3.68,37.11,37.11,0,0,1-.35-5.49V44.76a41.29,41.29,0,0,1,.33-5.7A10.69,10.69,0,0,1,107,35.34a4.62,4.62,0,0,1,2.18-2,8.61,8.61,0,0,1,3.45-.6H117a8,8,0,0,1,3.37.63,5.34,5.34,0,0,1,2.2,1.87,8.2,8.2,0,0,1,1.17,3A22,22,0,0,1,124.11,42.41Zm-11.67-1.08c-.93,0-1.39.62-1.39,1.85s.46,1.89,1.39,1.89h4.89c.85,0,1.27-.63,1.27-1.89s-.41-1.85-1.23-1.85Z"/><path class="cls-4" d="M145.84,61.05a2.9,2.9,0,0,1-.29,1.31,2.83,2.83,0,0,1-.77,1,3.29,3.29,0,0,1-1.08.57,3.88,3.88,0,0,1-1.21.2,3.49,3.49,0,0,1-2.18-.75,2.71,2.71,0,0,1-1-2.3V53.62a2.78,2.78,0,0,0-.08-.73.74.74,0,0,0-.33-.43,1.73,1.73,0,0,0-.71-.19c-.31,0-.73,0-1.27,0h-3.62v8.82a3.25,3.25,0,0,1-.27,1.39,3,3,0,0,1-.73,1,3.1,3.1,0,0,1-1,.6,3.66,3.66,0,0,1-1.16.19,3.38,3.38,0,0,1-2.18-.79,2.85,2.85,0,0,1-1-2.37V35.67c0-2,.85-3,2.54-3h6.74a21.06,21.06,0,0,1,4.13.35,5.78,5.78,0,0,1,2.75,1.29,5.37,5.37,0,0,1,1.54,2.58,15.15,15.15,0,0,1,.48,4.18,7.83,7.83,0,0,1-.17,1.62,11.55,11.55,0,0,1-.46,1.61,6.26,6.26,0,0,1-.73,1.41,3.87,3.87,0,0,1-.95,1,3.17,3.17,0,0,1,1.39.93,5,5,0,0,1,.92,1.58,9.81,9.81,0,0,1,.52,2,14.51,14.51,0,0,1,.18,2.31Zm-12.6-16.91H138c.67,0,1-.54,1-1.62s-.33-1.65-1-1.65h-4.74Z"/><path class="cls-4" d="M170,61.05c0,2-.86,2.93-2.58,2.93a9.37,9.37,0,0,1-2.24-.21,2.6,2.6,0,0,1-1.19-.6,1.53,1.53,0,0,1-.46-.92,8.72,8.72,0,0,1-.08-1.2V41.21H163c-2.49,0-3.74-.68-3.74-2V34.74q0-2.12,5.66-2.12h1.35a5.41,5.41,0,0,1,2.78.58,2.74,2.74,0,0,1,.92,2.47Z"/><path class="cls-4" d="M177.16,41.79c1.23,0,1.84,1.11,1.84,3.32v2.46c0,2-.61,3-1.84,3h-2.59c-1.23,0-1.84-1-1.84-3V45.11c0-2.21.61-3.32,1.84-3.32Zm0,13.45c1.23,0,1.84,1.1,1.84,3.31V61c0,2.05-.61,3.08-1.84,3.08h-2.59c-1.23,0-1.84-1-1.84-3.08V58.55c0-2.21.61-3.31,1.84-3.31Z"/></g></svg>