<svg xmlns="http://www.w3.org/2000/svg" xmlns:xlink="http://www.w3.org/1999/xlink" viewBox="0 0 819.21 701.59"><defs><style>.cls-1{fill:none;}.cls-2{clip-path:url(#clip-path);}.cls-3{fill:url(#Unbenannter_Verlauf_618);}.cls-4{opacity:0.15;}.cls-5{fill:url(#Unbenannter_Verlauf_617);}.cls-6{fill:url(#Unbenannter_Verlauf_617-2);}.cls-7{fill:url(#Unbenannter_Verlauf_617-3);}.cls-8{fill:url(#Unbenannter_Verlauf_617-4);}.cls-9{fill:url(#Unbenannter_Verlauf_617-5);}.cls-10{fill:url(#Unbenannter_Verlauf_617-6);}.cls-11{fill:url(#Unbenannter_Verlauf_617-7);}.cls-12{fill:url(#Unbenannter_Verlauf_617-8);}.cls-13{fill:url(#Unbenannter_Verlauf_617-9);}.cls-14{fill:url(#Unbenannter_Verlauf_617-10);}.cls-15{fill:url(#Unbenannter_Verlauf_617-11);}.cls-16{fill:url(#Unbenannter_Verlauf_617-12);}.cls-17{fill:url(#Unbenannter_Verlauf_617-13);}.cls-18{fill:url(#Unbenannter_Verlauf_617-14);}.cls-19{fill:url(#Unbenannter_Verlauf_617-15);}.cls-20{fill:url(#Unbenannter_Verlauf_617-16);}.cls-21{fill:url(#Unbenannter_Verlauf_617-17);}.cls-22{fill:url(#Unbenannter_Verlauf_617-18);}.cls-23{fill:url(#Unbenannter_Verlauf_617-19);}.cls-24{fill:url(#Unbenannter_Verlauf_617-20);}.cls-25{fill:url(#Unbenannter_Verlauf_617-21);}.cls-26{fill:url(#Unbenannter_Verlauf_617-22);}.cls-27{fill:url(#Unbenannter_Verlauf_617-23);}.cls-28{fill:url(#Unbenannter_Verlauf_617-24);}.cls-29{fill:url(#Unbenannter_Verlauf_617-25);}.cls-30{fill:url(#Unbenannter_Verlauf_617-26);}.cls-31{fill:url(#Unbenannter_Verlauf_617-27);}.cls-32{fill:url(#Unbenannter_Verlauf_617-28);}.cls-33{fill:url(#Unbenannter_Verlauf_617-29);}.cls-34{fill:url(#Unbenannter_Verlauf_617-30);}.cls-35{fill:url(#Unbenannter_Verlauf_617-31);}.cls-36{fill:url(#Unbenannter_Verlauf_617-32);}.cls-37{fill:url(#Unbenannter_Verlauf_617-33);}.cls-38{fill:url(#Unbenannter_Verlauf_617-34);}.cls-39{fill:url(#Unbenannter_Verlauf_617-35);}.cls-40{fill:url(#Unbenannter_Verlauf_617-36);}.cls-41{fill:url(#Unbenannter_Verlauf_617-37);}.cls-42{fill:url(#Unbenannter_Verlauf_617-38);}.cls-43{fill:url(#Unbenannter_Verlauf_617-39);}.cls-44{fill:url(#Unbenannter_Verlauf_617-40);}.cls-45{fill:url(#Unbenannter_Verlauf_617-41);}.cls-46{fill:url(#Unbenannter_Verlauf_617-42);}</style><clipPath id="clip-path"><path class="cls-1" d="M0-.29V701.89H819.21V-.29ZM58.51,684.3A41.52,41.52,0,1,1,100,642.79,41.52,41.52,0,0,1,58.51,684.3Zm0-117A41.52,41.52,0,1,1,100,525.76,41.52,41.52,0,0,1,58.51,567.27Zm0-117A41.52,41.52,0,1,1,100,408.73,41.52,41.52,0,0,1,58.51,450.24Zm0-117A41.52,41.52,0,1,1,100,291.7,41.52,41.52,0,0,1,58.51,333.21Zm0-117A41.52,41.52,0,1,1,100,174.67,41.52,41.52,0,0,1,58.51,216.18Zm0-117A41.52,41.52,0,1,1,100,57.64,41.52,41.52,0,0,1,58.51,99.15Zm117,585.15a41.52,41.52,0,1,1,41.52-41.51A41.52,41.52,0,0,1,175.54,684.3Zm0-117a41.52,41.52,0,1,1,41.52-41.51A41.52,41.52,0,0,1,175.54,567.27Zm0-117a41.52,41.52,0,1,1,41.52-41.51A41.52,41.52,0,0,1,175.54,450.24Zm0-117a41.52,41.52,0,1,1,41.52-41.51A41.52,41.52,0,0,1,175.54,333.21Zm0-117a41.52,41.52,0,1,1,41.52-41.51A41.52,41.52,0,0,1,175.54,216.18Zm0-117a41.52,41.52,0,1,1,41.52-41.51A41.52,41.52,0,0,1,175.54,99.15Zm117,585.15a41.52,41.52,0,1,1,41.52-41.51A41.52,41.52,0,0,1,292.57,684.3Zm0-117a41.52,41.52,0,1,1,41.52-41.51A41.52,41.52,0,0,1,292.57,567.27Zm0-117a41.52,41.52,0,1,1,41.52-41.51A41.52,41.52,0,0,1,292.57,450.24Zm0-117a41.52,41.52,0,1,1,41.52-41.51A41.52,41.52,0,0,1,292.57,333.21Zm0-117a41.52,41.52,0,1,1,41.52-41.51A41.52,41.52,0,0,1,292.57,216.18Zm0-117a41.52,41.52,0,1,1,41.52-41.51A41.52,41.52,0,0,1,292.57,99.15Zm117,585.15a41.52,41.52,0,1,1,41.52-41.51A41.52,41.52,0,0,1,409.6,684.3Zm0-117a41.52,41.52,0,1,1,41.52-41.51A41.52,41.52,0,0,1,409.6,567.27Zm0-117a41.52,41.52,0,1,1,41.52-41.51A41.52,41.52,0,0,1,409.6,450.24Zm0-117a41.52,41.52,0,1,1,41.52-41.51A41.52,41.52,0,0,1,409.6,333.21Zm0-117a41.52,41.52,0,1,1,41.52-41.51A41.52,41.52,0,0,1,409.6,216.18Zm0-117a41.52,41.52,0,1,1,41.52-41.51A41.52,41.52,0,0,1,409.6,99.15Zm117,585.15a41.52,41.52,0,1,1,41.52-41.51A41.52,41.52,0,0,1,526.63,684.3Zm0-117a41.52,41.52,0,1,1,41.52-41.51A41.52,41.52,0,0,1,526.63,567.27Zm0-117a41.52,41.52,0,1,1,41.52-41.51A41.52,41.52,0,0,1,526.63,450.24Zm0-117a41.52,41.52,0,1,1,41.52-41.51A41.52,41.52,0,0,1,526.63,333.21Zm0-117a41.52,41.52,0,1,1,41.52-41.51A41.52,41.52,0,0,1,526.63,216.18Zm0-117a41.52,41.52,0,1,1,41.52-41.51A41.52,41.52,0,0,1,526.63,99.15Zm117,585.15a41.52,41.52,0,1,1,41.52-41.51A41.52,41.52,0,0,1,643.66,684.3Zm0-117a41.52,41.52,0,1,1,41.52-41.51A41.52,41.52,0,0,1,643.66,567.27Zm0-117a41.52,41.52,0,1,1,41.52-41.51A41.52,41.52,0,0,1,643.66,450.24Zm0-117a41.52,41.52,0,1,1,41.52-41.51A41.52,41.52,0,0,1,643.66,333.21Zm0-117a41.52,41.52,0,1,1,41.52-41.51A41.52,41.52,0,0,1,643.66,216.18Zm0-117a41.52,41.52,0,1,1,41.52-41.51A41.52,41.52,0,0,1,643.66,99.15Zm117,585.15a41.52,41.52,0,1,1,41.52-41.51A41.52,41.52,0,0,1,760.69,684.3Zm0-117a41.52,41.52,0,1,1,41.52-41.51A41.52,41.52,0,0,1,760.69,567.27Zm0-117a41.52,41.52,0,1,1,41.52-41.51A41.52,41.52,0,0,1,760.69,450.24Zm0-117a41.52,41.52,0,1,1,41.52-41.51A41.52,41.52,0,0,1,760.69,333.21Zm0-117a41.52,41.52,0,1,1,41.52-41.51A41.52,41.52,0,0,1,760.69,216.18Zm0-117a41.52,41.52,0,1,1,41.52-41.51A41.52,41.52,0,0,1,760.69,99.15Z"/></clipPath><linearGradient id="Unbenannter_Verlauf_618" x1="29.26" y1="-29.55" x2="789.95" y2="731.14" gradientUnits="userSpaceOnUse"><stop offset="0" stop-color="#3081a1"/><stop offset="0.2" stop-color="#3182a3"/><stop offset="0.27" stop-color="#3288aa"/><stop offset="0.32" stop-color="#3591b5"/><stop offset="0.33" stop-color="#3795bb"/><stop offset="0.37" stop-color="#2d89ad"/><stop offset="0.42" stop-color="#257da0"/><stop offset="0.48" stop-color="#1f7798"/><stop offset="0.62" stop-color="#1e7596"/><stop offset="0.68" stop-color="#1d6f8e"/><stop offset="0.73" stop-color="#1b6683"/><stop offset="0.77" stop-color="#1c6d8c"/><stop offset="0.85" stop-color="#1e7394"/><stop offset="1" stop-color="#1e7596"/></linearGradient><radialGradient id="Unbenannter_Verlauf_617" cx="58.51" cy="643.37" r="49.51" gradientUnits="userSpaceOnUse"><stop offset="0.84" stop-color="#141414"/><stop offset="1" stop-color="#967272" stop-opacity="0"/></radialGradient><radialGradient id="Unbenannter_Verlauf_617-2" cx="175.54" cy="643.37" r="49.51" xlink:href="#Unbenannter_Verlauf_617"/><radialGradient id="Unbenannter_Verlauf_617-3" cx="58.51" cy="526.34" r="49.51" xlink:href="#Unbenannter_Verlauf_617"/><radialGradient id="Unbenannter_Verlauf_617-4" cx="292.57" cy="643.37" r="49.51" xlink:href="#Unbenannter_Verlauf_617"/><radialGradient id="Unbenannter_Verlauf_617-5" cx="409.6" cy="643.37" r="49.51" xlink:href="#Unbenannter_Verlauf_617"/><radialGradient id="Unbenannter_Verlauf_617-6" cx="526.63" cy="643.37" r="49.51" xlink:href="#Unbenannter_Verlauf_617"/><radialGradient id="Unbenannter_Verlauf_617-7" cx="643.66" cy="643.37" r="49.51" xlink:href="#Unbenannter_Verlauf_617"/><radialGradient id="Unbenannter_Verlauf_617-8" cx="760.69" cy="643.37" r="49.51" xlink:href="#Unbenannter_Verlauf_617"/><radialGradient id="Unbenannter_Verlauf_617-9" cx="175.54" cy="526.34" r="49.51" xlink:href="#Unbenannter_Verlauf_617"/><radialGradient id="Unbenannter_Verlauf_617-10" cx="58.51" cy="409.31" r="49.51" xlink:href="#Unbenannter_Verlauf_617"/><radialGradient id="Unbenannter_Verlauf_617-11" cx="292.57" cy="526.34" r="49.51" xlink:href="#Unbenannter_Verlauf_617"/><radialGradient id="Unbenannter_Verlauf_617-12" cx="409.6" cy="526.34" r="49.51" xlink:href="#Unbenannter_Verlauf_617"/><radialGradient id="Unbenannter_Verlauf_617-13" cx="526.63" cy="526.34" r="49.51" xlink:href="#Unbenannter_Verlauf_617"/><radialGradient id="Unbenannter_Verlauf_617-14" cx="643.66" cy="526.34" r="49.51" xlink:href="#Unbenannter_Verlauf_617"/><radialGradient id="Unbenannter_Verlauf_617-15" cx="760.69" cy="526.34" r="49.51" xlink:href="#Unbenannter_Verlauf_617"/><radialGradient id="Unbenannter_Verlauf_617-16" cx="175.54" cy="409.31" r="49.51" xlink:href="#Unbenannter_Verlauf_617"/><radialGradient id="Unbenannter_Verlauf_617-17" cx="58.51" cy="292.28" r="49.51" xlink:href="#Unbenannter_Verlauf_617"/><radialGradient id="Unbenannter_Verlauf_617-18" cx="292.57" cy="409.31" r="49.51" xlink:href="#Unbenannter_Verlauf_617"/><radialGradient id="Unbenannter_Verlauf_617-19" cx="409.6" cy="409.31" r="49.51" xlink:href="#Unbenannter_Verlauf_617"/><radialGradient id="Unbenannter_Verlauf_617-20" cx="526.63" cy="409.31" r="49.51" xlink:href="#Unbenannter_Verlauf_617"/><radialGradient id="Unbenannter_Verlauf_617-21" cx="643.66" cy="409.31" r="49.51" xlink:href="#Unbenannter_Verlauf_617"/><radialGradient id="Unbenannter_Verlauf_617-22" cx="760.69" cy="409.31" r="49.51" xlink:href="#Unbenannter_Verlauf_617"/><radialGradient id="Unbenannter_Verlauf_617-23" cx="175.54" cy="292.28" r="49.51" xlink:href="#Unbenannter_Verlauf_617"/><radialGradient id="Unbenannter_Verlauf_617-24" cx="58.51" cy="175.25" r="49.51" xlink:href="#Unbenannter_Verlauf_617"/><radialGradient id="Unbenannter_Verlauf_617-25" cx="292.57" cy="292.28" r="49.51" xlink:href="#Unbenannter_Verlauf_617"/><radialGradient id="Unbenannter_Verlauf_617-26" cx="409.6" cy="292.28" r="49.51" xlink:href="#Unbenannter_Verlauf_617"/><radialGradient id="Unbenannter_Verlauf_617-27" cx="526.63" cy="292.28" r="49.51" xlink:href="#Unbenannter_Verlauf_617"/><radialGradient id="Unbenannter_Verlauf_617-28" cx="643.66" cy="292.28" r="49.51" xlink:href="#Unbenannter_Verlauf_617"/><radialGradient id="Unbenannter_Verlauf_617-29" cx="760.69" cy="292.28" r="49.51" xlink:href="#Unbenannter_Verlauf_617"/><radialGradient id="Unbenannter_Verlauf_617-30" cx="175.54" cy="175.25" r="49.51" xlink:href="#Unbenannter_Verlauf_617"/><radialGradient id="Unbenannter_Verlauf_617-31" cx="58.51" cy="58.22" r="49.51" xlink:href="#Unbenannter_Verlauf_617"/><radialGradient id="Unbenannter_Verlauf_617-32" cx="292.57" cy="175.25" r="49.51" xlink:href="#Unbenannter_Verlauf_617"/><radialGradient id="Unbenannter_Verlauf_617-33" cx="409.6" cy="175.25" r="49.51" xlink:href="#Unbenannter_Verlauf_617"/><radialGradient id="Unbenannter_Verlauf_617-34" cx="526.63" cy="175.25" r="49.51" xlink:href="#Unbenannter_Verlauf_617"/><radialGradient id="Unbenannter_Verlauf_617-35" cx="643.66" cy="175.25" r="49.51" xlink:href="#Unbenannter_Verlauf_617"/><radialGradient id="Unbenannter_Verlauf_617-36" cx="760.69" cy="175.25" r="49.51" xlink:href="#Unbenannter_Verlauf_617"/><radialGradient id="Unbenannter_Verlauf_617-37" cx="175.54" cy="58.22" r="49.51" xlink:href="#Unbenannter_Verlauf_617"/><radialGradient id="Unbenannter_Verlauf_617-38" cx="292.57" cy="58.22" r="49.51" xlink:href="#Unbenannter_Verlauf_617"/><radialGradient id="Unbenannter_Verlauf_617-39" cx="409.6" cy="58.22" r="49.51" xlink:href="#Unbenannter_Verlauf_617"/><radialGradient id="Unbenannter_Verlauf_617-40" cx="526.63" cy="58.22" r="49.51" xlink:href="#Unbenannter_Verlauf_617"/><radialGradient id="Unbenannter_Verlauf_617-41" cx="643.66" cy="58.22" r="49.51" xlink:href="#Unbenannter_Verlauf_617"/><radialGradient id="Unbenannter_Verlauf_617-42" cx="760.69" cy="58.22" r="49.51" xlink:href="#Unbenannter_Verlauf_617"/></defs><title>i</title><g id="bg"><g class="cls-2"><rect class="cls-3" y="-0.29" width="819.21" height="702.18"/><g id="schatten"><g class="cls-4"><path class="cls-5" d="M58.51,601.86A41.51,41.51,0,1,1,17,643.37a41.51,41.51,0,0,1,41.51-41.51m0-8A49.51,49.51,0,1,0,108,643.37a49.57,49.57,0,0,0-49.52-49.51Z"/></g><g class="cls-4"><path class="cls-6" d="M175.54,601.86A41.51,41.51,0,1,1,134,643.37a41.51,41.51,0,0,1,41.51-41.51m0-8a49.51,49.51,0,1,0,49.52,49.51,49.57,49.57,0,0,0-49.52-49.51Z"/></g><g class="cls-4"><path class="cls-7" d="M58.51,484.83A41.51,41.51,0,1,1,17,526.34a41.51,41.51,0,0,1,41.51-41.51m0-8A49.51,49.51,0,1,0,108,526.34a49.57,49.57,0,0,0-49.52-49.51Z"/></g><g class="cls-4"><path class="cls-8" d="M292.57,601.86a41.51,41.51,0,1,1-41.51,41.51,41.51,41.51,0,0,1,41.51-41.51m0-8a49.51,49.51,0,1,0,49.52,49.51,49.57,49.57,0,0,0-49.52-49.51Z"/></g><g class="cls-4"><path class="cls-9" d="M409.6,601.86a41.51,41.51,0,1,1-41.51,41.51,41.51,41.51,0,0,1,41.51-41.51m0-8a49.51,49.51,0,1,0,49.52,49.51,49.57,49.57,0,0,0-49.52-49.51Z"/></g><g class="cls-4"><path class="cls-10" d="M526.63,601.86a41.51,41.51,0,1,1-41.51,41.51,41.51,41.51,0,0,1,41.51-41.51m0-8a49.51,49.51,0,1,0,49.52,49.51,49.57,49.57,0,0,0-49.52-49.51Z"/></g><g class="cls-4"><path class="cls-11" d="M643.66,601.86a41.51,41.51,0,1,1-41.51,41.51,41.51,41.51,0,0,1,41.51-41.51m0-8a49.51,49.51,0,1,0,49.52,49.51,49.57,49.57,0,0,0-49.52-49.51Z"/></g><g class="cls-4"><path class="cls-12" d="M760.69,601.86a41.51,41.51,0,1,1-41.51,41.51,41.5,41.5,0,0,1,41.51-41.51m0-8a49.51,49.51,0,1,0,49.51,49.51,49.57,49.57,0,0,0-49.51-49.51Z"/></g><g class="cls-4"><path class="cls-13" d="M175.54,484.83A41.51,41.51,0,1,1,134,526.34a41.51,41.51,0,0,1,41.51-41.51m0-8a49.51,49.51,0,1,0,49.52,49.51,49.57,49.57,0,0,0-49.52-49.51Z"/></g><g class="cls-4"><path class="cls-14" d="M58.51,367.8A41.51,41.51,0,1,1,17,409.31,41.51,41.51,0,0,1,58.51,367.8m0-8A49.51,49.51,0,1,0,108,409.31,49.57,49.57,0,0,0,58.51,359.8Z"/></g><g class="cls-4"><path class="cls-15" d="M292.57,484.83a41.51,41.51,0,1,1-41.51,41.51,41.51,41.51,0,0,1,41.51-41.51m0-8a49.51,49.51,0,1,0,49.52,49.51,49.57,49.57,0,0,0-49.52-49.51Z"/></g><g class="cls-4"><path class="cls-16" d="M409.6,484.83a41.51,41.51,0,1,1-41.51,41.51,41.51,41.51,0,0,1,41.51-41.51m0-8a49.51,49.51,0,1,0,49.52,49.51,49.57,49.57,0,0,0-49.52-49.51Z"/></g><g class="cls-4"><path class="cls-17" d="M526.63,484.83a41.51,41.51,0,1,1-41.51,41.51,41.51,41.51,0,0,1,41.51-41.51m0-8a49.51,49.51,0,1,0,49.52,49.51,49.57,49.57,0,0,0-49.52-49.51Z"/></g><g class="cls-4"><path class="cls-18" d="M643.66,484.83a41.51,41.51,0,1,1-41.51,41.51,41.51,41.51,0,0,1,41.51-41.51m0-8a49.51,49.51,0,1,0,49.52,49.51,49.57,49.57,0,0,0-49.52-49.51Z"/></g><g class="cls-4"><path class="cls-19" d="M760.69,484.83a41.51,41.51,0,1,1-41.51,41.51,41.5,41.5,0,0,1,41.51-41.51m0-8a49.51,49.51,0,1,0,49.51,49.51,49.57,49.57,0,0,0-49.51-49.51Z"/></g><g class="cls-4"><path class="cls-20" d="M175.54,367.8A41.51,41.51,0,1,1,134,409.31a41.51,41.51,0,0,1,41.51-41.51m0-8a49.51,49.51,0,1,0,49.52,49.51,49.57,49.57,0,0,0-49.52-49.51Z"/></g><g class="cls-4"><path class="cls-21" d="M58.51,250.77A41.51,41.51,0,1,1,17,292.28a41.51,41.51,0,0,1,41.51-41.51m0-8A49.51,49.51,0,1,0,108,292.28a49.57,49.57,0,0,0-49.52-49.51Z"/></g><g class="cls-4"><path class="cls-22" d="M292.57,367.8a41.51,41.51,0,1,1-41.51,41.51,41.51,41.51,0,0,1,41.51-41.51m0-8a49.51,49.51,0,1,0,49.52,49.51,49.57,49.57,0,0,0-49.52-49.51Z"/></g><g class="cls-4"><path class="cls-23" d="M409.6,367.8a41.51,41.51,0,1,1-41.51,41.51A41.51,41.51,0,0,1,409.6,367.8m0-8a49.51,49.51,0,1,0,49.52,49.51A49.57,49.57,0,0,0,409.6,359.8Z"/></g><g class="cls-4"><path class="cls-24" d="M526.63,367.8a41.51,41.51,0,1,1-41.51,41.51,41.51,41.51,0,0,1,41.51-41.51m0-8a49.51,49.51,0,1,0,49.52,49.51,49.57,49.57,0,0,0-49.52-49.51Z"/></g><g class="cls-4"><path class="cls-25" d="M643.66,367.8a41.51,41.51,0,1,1-41.51,41.51,41.51,41.51,0,0,1,41.51-41.51m0-8a49.51,49.51,0,1,0,49.52,49.51,49.57,49.57,0,0,0-49.52-49.51Z"/></g><g class="cls-4"><path class="cls-26" d="M760.69,367.8a41.51,41.51,0,1,1-41.51,41.51,41.5,41.5,0,0,1,41.51-41.51m0-8a49.51,49.51,0,1,0,49.51,49.51,49.57,49.57,0,0,0-49.51-49.51Z"/></g><g class="cls-4"><path class="cls-27" d="M175.54,250.77A41.51,41.51,0,1,1,134,292.28a41.51,41.51,0,0,1,41.51-41.51m0-8a49.51,49.51,0,1,0,49.52,49.51,49.57,49.57,0,0,0-49.52-49.51Z"/></g><g class="cls-4"><path class="cls-28" d="M58.51,133.74A41.51,41.51,0,1,1,17,175.25a41.52,41.52,0,0,1,41.51-41.51m0-8A49.51,49.51,0,1,0,108,175.25a49.57,49.57,0,0,0-49.52-49.51Z"/></g><g class="cls-4"><path class="cls-29" d="M292.57,250.77a41.51,41.51,0,1,1-41.51,41.51,41.51,41.51,0,0,1,41.51-41.51m0-8a49.51,49.51,0,1,0,49.52,49.51,49.57,49.57,0,0,0-49.52-49.51Z"/></g><g class="cls-4"><path class="cls-30" d="M409.6,250.77a41.51,41.51,0,1,1-41.51,41.51,41.51,41.51,0,0,1,41.51-41.51m0-8a49.51,49.51,0,1,0,49.52,49.51,49.57,49.57,0,0,0-49.52-49.51Z"/></g><g class="cls-4"><path class="cls-31" d="M526.63,250.77a41.51,41.51,0,1,1-41.51,41.51,41.51,41.51,0,0,1,41.51-41.51m0-8a49.51,49.51,0,1,0,49.52,49.51,49.57,49.57,0,0,0-49.52-49.51Z"/></g><g class="cls-4"><path class="cls-32" d="M643.66,250.77a41.51,41.51,0,1,1-41.51,41.51,41.51,41.51,0,0,1,41.51-41.51m0-8a49.51,49.51,0,1,0,49.52,49.51,49.57,49.57,0,0,0-49.52-49.51Z"/></g><g class="cls-4"><path class="cls-33" d="M760.69,250.77a41.51,41.51,0,1,1-41.51,41.51,41.5,41.5,0,0,1,41.51-41.51m0-8a49.51,49.51,0,1,0,49.51,49.51,49.57,49.57,0,0,0-49.51-49.51Z"/></g><g class="cls-4"><path class="cls-34" d="M175.54,133.74A41.51,41.51,0,1,1,134,175.25a41.52,41.52,0,0,1,41.51-41.51m0-8a49.51,49.51,0,1,0,49.52,49.51,49.57,49.57,0,0,0-49.52-49.51Z"/></g><g class="cls-4"><path class="cls-35" d="M58.51,16.71A41.51,41.51,0,1,1,17,58.22,41.52,41.52,0,0,1,58.51,16.71m0-8A49.51,49.51,0,1,0,108,58.22,49.57,49.57,0,0,0,58.51,8.71Z"/></g><g class="cls-4"><path class="cls-36" d="M292.57,133.74a41.51,41.51,0,1,1-41.51,41.51,41.52,41.52,0,0,1,41.51-41.51m0-8a49.51,49.51,0,1,0,49.52,49.51,49.57,49.57,0,0,0-49.52-49.51Z"/></g><g class="cls-4"><path class="cls-37" d="M409.6,133.74a41.51,41.51,0,1,1-41.51,41.51,41.52,41.52,0,0,1,41.51-41.51m0-8a49.51,49.51,0,1,0,49.52,49.51,49.57,49.57,0,0,0-49.52-49.51Z"/></g><g class="cls-4"><path class="cls-38" d="M526.63,133.74a41.51,41.51,0,1,1-41.51,41.51,41.52,41.52,0,0,1,41.51-41.51m0-8a49.51,49.51,0,1,0,49.52,49.51,49.57,49.57,0,0,0-49.52-49.51Z"/></g><g class="cls-4"><path class="cls-39" d="M643.66,133.74a41.51,41.51,0,1,1-41.51,41.51,41.52,41.52,0,0,1,41.51-41.51m0-8a49.51,49.51,0,1,0,49.52,49.51,49.57,49.57,0,0,0-49.52-49.51Z"/></g><g class="cls-4"><path class="cls-40" d="M760.69,133.74a41.51,41.51,0,1,1-41.51,41.51,41.51,41.51,0,0,1,41.51-41.51m0-8a49.51,49.51,0,1,0,49.51,49.51,49.57,49.57,0,0,0-49.51-49.51Z"/></g><g class="cls-4"><path class="cls-41" d="M175.54,16.71A41.51,41.51,0,1,1,134,58.22a41.52,41.52,0,0,1,41.51-41.51m0-8a49.51,49.51,0,1,0,49.52,49.51A49.57,49.57,0,0,0,175.54,8.71Z"/></g><g class="cls-4"><path class="cls-42" d="M292.57,16.71a41.51,41.51,0,1,1-41.51,41.51,41.52,41.52,0,0,1,41.51-41.51m0-8a49.51,49.51,0,1,0,49.52,49.51A49.57,49.57,0,0,0,292.57,8.71Z"/></g><g class="cls-4"><path class="cls-43" d="M409.6,16.71a41.51,41.51,0,1,1-41.51,41.51A41.52,41.52,0,0,1,409.6,16.71m0-8a49.51,49.51,0,1,0,49.52,49.51A49.57,49.57,0,0,0,409.6,8.71Z"/></g><g class="cls-4"><path class="cls-44" d="M526.63,16.71a41.51,41.51,0,1,1-41.51,41.51,41.52,41.52,0,0,1,41.51-41.51m0-8a49.51,49.51,0,1,0,49.52,49.51A49.57,49.57,0,0,0,526.63,8.71Z"/></g><g class="cls-4"><path class="cls-45" d="M643.66,16.71a41.51,41.51,0,1,1-41.51,41.51,41.52,41.52,0,0,1,41.51-41.51m0-8a49.51,49.51,0,1,0,49.52,49.51A49.57,49.57,0,0,0,643.66,8.71Z"/></g><g class="cls-4"><path class="cls-46" d="M760.69,16.71a41.51,41.51,0,1,1-41.51,41.51,41.51,41.51,0,0,1,41.51-41.51m0-8A49.51,49.51,0,1,0,810.2,58.22,49.57,49.57,0,0,0,760.69,8.71Z"/></g></g></g></g></svg>