<svg xmlns="http://www.w3.org/2000/svg" xmlns:xlink="http://www.w3.org/1999/xlink" viewBox="0 0 738.61 209.89"><defs><style>.cls-1{fill:none;}.cls-10,.cls-2,.cls-3,.cls-4,.cls-5,.cls-6,.cls-7,.cls-8{stroke:#165366;stroke-width:6px;}.cls-2,.cls-3,.cls-4,.cls-5,.cls-6,.cls-7,.cls-8{stroke-miterlimit:10;}.cls-2{fill:url(#Unbenannter_Verlauf_973);}.cls-3{fill:url(#Unbenannter_Verlauf_973-2);}.cls-4{fill:url(#Unbenannter_Verlauf_973-3);}.cls-5{fill:url(#Unbenannter_Verlauf_973-4);}.cls-6{fill:url(#Unbenannter_Verlauf_973-5);}.cls-7{fill:url(#Unbenannter_Verlauf_973-6);}.cls-8{fill:url(#Unbenannter_Verlauf_973-7);}.cls-9{clip-path:url(#clip-path);}.cls-10{stroke-linejoin:round;fill:url(#Unbenannter_Verlauf_990);}</style><linearGradient id="Unbenannter_Verlauf_973" x1="3.39" y1="105.25" x2="90.63" y2="105.25" gradientUnits="userSpaceOnUse"><stop offset="0.15" stop-color="#4093ad"/><stop offset="0.58" stop-color="#4093ad"/><stop offset="0.83" stop-color="#2d82a0"/><stop offset="1" stop-color="#1e7596"/></linearGradient><linearGradient id="Unbenannter_Verlauf_973-2" x1="90.63" y1="104.84" x2="195.12" y2="104.84" xlink:href="#Unbenannter_Verlauf_973"/><linearGradient id="Unbenannter_Verlauf_973-3" x1="195.12" y1="105.5" x2="288.3" y2="105.5" xlink:href="#Unbenannter_Verlauf_973"/><linearGradient id="Unbenannter_Verlauf_973-4" x1="288.3" y1="105.5" x2="381.48" y2="105.5" xlink:href="#Unbenannter_Verlauf_973"/><linearGradient id="Unbenannter_Verlauf_973-5" x1="381.48" y1="105.91" x2="473.71" y2="105.91" xlink:href="#Unbenannter_Verlauf_973"/><linearGradient id="Unbenannter_Verlauf_973-6" x1="473.71" y1="105.25" x2="560.94" y2="105.25" xlink:href="#Unbenannter_Verlauf_973"/><linearGradient id="Unbenannter_Verlauf_973-7" x1="560.94" y1="105.42" x2="657.96" y2="105.42" xlink:href="#Unbenannter_Verlauf_973"/><clipPath id="clip-path"><path class="cls-1" d="M567.88,0V37.21c.27-.15.53-.32.81-.46a18.53,18.53,0,0,1,8.55-1.93h63.08a21.57,21.57,0,0,1,9,1.78,19.37,19.37,0,0,1,6.52,4.75,20.29,20.29,0,0,1,4,6.75,22.9,22.9,0,0,1,1.34,7.76,24.37,24.37,0,0,1-1.32,7.89,19.65,19.65,0,0,1-4.24,7.1,22,22,0,0,1-7.06,4.94,23.53,23.53,0,0,1-9.75,1.94H577.24a18.47,18.47,0,0,1-8.55-1.93c-.28-.14-.54-.31-.81-.46V209.89H738.61V0Z"/></clipPath><linearGradient id="Unbenannter_Verlauf_990" x1="593.87" y1="107.35" x2="732.82" y2="107.35" gradientUnits="userSpaceOnUse"><stop offset="0.17" stop-color="#1e9ac1"/><stop offset="0.46" stop-color="#1e98be"/><stop offset="0.66" stop-color="#1c90b5"/><stop offset="0.85" stop-color="#1984a5"/><stop offset="1" stop-color="#167491"/></linearGradient></defs><title>header</title><g id="bg"><g id="header"><path class="cls-2" d="M42.88,172.64q-11.49,0-19.17-2.8a26.4,26.4,0,0,1-12.17-8.68,35.57,35.57,0,0,1-6.33-15,114.45,114.45,0,0,1-1.82-22v-24q0-15,.76-25.19T7,59q7.49-21.14,37.58-21.14H73.37a17,17,0,0,1,7.48,1.57,15.68,15.68,0,0,1,5.37,4.13,19.33,19.33,0,0,1,3.26,5.78A19.94,19.94,0,0,1,90.63,56a21.48,21.48,0,0,1-1.06,6.69,15.94,15.94,0,0,1-3.26,5.7A16.91,16.91,0,0,1,73.37,74H43.84q-9.2,0-9.2,16v34.36q0,11.4,9.2,11.4H74.71a13.79,13.79,0,0,1,6.81,1.65,15.39,15.39,0,0,1,4.89,4.21,18.26,18.26,0,0,1,2.87,5.87,23.53,23.53,0,0,1,1,6.6,22.28,22.28,0,0,1-1,6.78A17.59,17.59,0,0,1,86,166.78,16.66,16.66,0,0,1,80.75,171a15.75,15.75,0,0,1-7.38,1.65Z"/><path class="cls-3" d="M130.12,172.64q-11.5,0-19.17-2.8a26.48,26.48,0,0,1-12.18-8.68,35.69,35.69,0,0,1-6.32-15,114.45,114.45,0,0,1-1.82-22v-24q0-30.06,3.64-41.13,7.47-22,37.58-22h21.86q30.09,0,37.58,22,3.83,11.73,3.83,41.13v24a118.07,118.07,0,0,1-1.73,21.72,36.36,36.36,0,0,1-6.13,15.12,26,26,0,0,1-12.08,8.83q-7.67,2.9-19.56,2.89Zm1-98.61q-9.2,0-9.2,14.21v34.35q0,13.23,9.2,13.22h23.39q9.21,0,9.21-13.22V88.24q0-14.2-9.21-14.21Z"/><path class="cls-4" d="M288.3,159.76q0,12.56-12.84,12.55h-9.78a15.42,15.42,0,0,1-6.52-1.24,7.06,7.06,0,0,1-3.64-3.22l-28.38-59.13v51c0,4.52-1.63,7.87-4.89,10.08a18.94,18.94,0,0,1-10.83,3.3,21.49,21.49,0,0,1-5.95-.83,15.64,15.64,0,0,1-5.17-2.56,14,14,0,0,1-3.74-4.21,11.29,11.29,0,0,1-1.44-5.78V50.91q0-12.72,12.85-12.72h9q13,0,15.72,5.45L256.28,92v-42q0-6.27,4.8-9.25a19.61,19.61,0,0,1,10.54-3,22.5,22.5,0,0,1,6,.82A21,21,0,0,1,283,41a11.69,11.69,0,0,1,3.83,3.8,9.77,9.77,0,0,1,1.44,5.28Z"/><path class="cls-5" d="M381.48,159.76q0,12.56-12.84,12.55h-9.78a15.42,15.42,0,0,1-6.52-1.24,7.1,7.1,0,0,1-3.64-3.22l-28.38-59.13v51c0,4.52-1.63,7.87-4.89,10.08a18.94,18.94,0,0,1-10.83,3.3,21.36,21.36,0,0,1-5.94-.83,15.6,15.6,0,0,1-5.18-2.56,14,14,0,0,1-3.74-4.21,11.29,11.29,0,0,1-1.44-5.78V50.91q0-12.72,12.85-12.72h9q13,0,15.72,5.45L349.46,92v-42q0-6.27,4.8-9.25a19.61,19.61,0,0,1,10.54-3,22.44,22.44,0,0,1,6,.82A21,21,0,0,1,376.21,41,11.6,11.6,0,0,1,380,44.8a9.77,9.77,0,0,1,1.44,5.28Z"/><path class="cls-6" d="M473.71,79.81A123.5,123.5,0,0,1,472,102.2a39.2,39.2,0,0,1-5.75,15,22.85,22.85,0,0,1-10.84,8.5q-6.79,2.65-17,2.65H424.24a24.34,24.34,0,0,1-8.63-1.66,13,13,0,0,1-5-2.9c-.15-.15-.43,0-.4.16q2.24,12.17,9.82,12.32h24.54a24.59,24.59,0,0,1,9.11,1.57,18.8,18.8,0,0,1,6.52,4.22,18.42,18.42,0,0,1,3.93,5.94,18,18,0,0,1,1.34,6.77,18.56,18.56,0,0,1-1.34,6.86,18.17,18.17,0,0,1-3.93,6,18.78,18.78,0,0,1-6.52,4.21,24.38,24.38,0,0,1-9.11,1.57H420.4q-11.49,0-19.07-2.81a25.11,25.11,0,0,1-12-8.92q-4.41-6.11-6.13-15.77a136.5,136.5,0,0,1-1.73-23.54V89.89a155,155,0,0,1,1.63-24.45q1.63-9.9,5.66-15.94a22.09,22.09,0,0,1,10.83-8.59q6.81-2.55,17.16-2.56h21.67q10,0,16.77,2.73a25.64,25.64,0,0,1,10.93,8,32.29,32.29,0,0,1,5.85,13A81.56,81.56,0,0,1,473.71,79.81Zm-59.16-5.34q-7.51,0-7.52,8.64,0,8.82,7.52,8.82h26.52q6.9,0,6.9-8.82,0-8.64-6.69-8.64Z"/><path class="cls-7" d="M513.2,172.64q-11.51,0-19.17-2.8a26.48,26.48,0,0,1-12.18-8.68,35.69,35.69,0,0,1-6.32-15,114.45,114.45,0,0,1-1.82-22v-24q0-15,.76-25.19T477.35,59q7.47-21.14,37.58-21.14h28.76a17,17,0,0,1,7.48,1.57,15.55,15.55,0,0,1,5.36,4.13,18.91,18.91,0,0,1,3.26,5.78A19.69,19.69,0,0,1,560.94,56a21.47,21.47,0,0,1-1.05,6.69,15.94,15.94,0,0,1-3.26,5.7A16.91,16.91,0,0,1,543.69,74H514.16q-9.19,0-9.2,16v34.36q0,11.4,9.2,11.4H545a13.81,13.81,0,0,1,6.81,1.65,15.39,15.39,0,0,1,4.89,4.21,18.26,18.26,0,0,1,2.87,5.87,23.53,23.53,0,0,1,1,6.6,22.28,22.28,0,0,1-1,6.78,17.59,17.59,0,0,1-3.17,5.86,16.77,16.77,0,0,1-5.27,4.21,15.75,15.75,0,0,1-7.38,1.65Z"/><path class="cls-8" d="M594.11,74.69H577.24a15.28,15.28,0,0,1-12.17-5.61A17.31,17.31,0,0,1,562,63.3a22.18,22.18,0,0,1,0-13.55,18.31,18.31,0,0,1,3.07-5.86,15.06,15.06,0,0,1,5.08-4.13,15.3,15.3,0,0,1,7.09-1.57h63.08A18.22,18.22,0,0,1,648,39.68a16.21,16.21,0,0,1,5.46,4,17.19,17.19,0,0,1,3.36,5.7A19.69,19.69,0,0,1,658,56a21,21,0,0,1-1.15,6.85,16.27,16.27,0,0,1-3.55,5.95,18.69,18.69,0,0,1-6,4.21,20.26,20.26,0,0,1-8.43,1.65H626.13v85.07a10.59,10.59,0,0,1-1.43,5.53,13,13,0,0,1-3.84,4.05,17.68,17.68,0,0,1-5.46,2.48,23.62,23.62,0,0,1-6.14.82,18.71,18.71,0,0,1-10.45-3q-4.69-3.06-4.7-9.83Z"/><g class="cls-9"><path class="cls-10" d="M732.82,181.6q0,9.93-5.67,14.9t-20.17,5q-16.07,0-21.58-5t-5.51-14.9V168.67H629.16a44.42,44.42,0,0,1-15-2.31,34.56,34.56,0,0,1-11-6.24,26.74,26.74,0,0,1-6.93-9,25,25,0,0,1-2.36-10.63,26.92,26.92,0,0,1,1.73-9.35,33,33,0,0,1,5.2-9.13L685.24,18.08c1-1.39,3.36-2.54,6.94-3.47a46.52,46.52,0,0,1,11.65-1.38,59,59,0,0,1,10.24.92,31.25,31.25,0,0,1,9.3,3.12A20.49,20.49,0,0,1,730.14,23a14.11,14.11,0,0,1,2.68,8.67Zm-70.9-57.95h22.39V90.82Z"/></g></g></g></svg>