<svg xmlns="http://www.w3.org/2000/svg" xmlns:xlink="http://www.w3.org/1999/xlink" viewBox="0 0 461.67 140.09"><defs><style>.cls-1{fill:url(#Unbenannter_Verlauf_973);}.cls-2,.cls-3{fill:#165366;}.cls-3{font-size:37.17px;font-family:Overload-Regular, Overload;}</style><linearGradient id="Unbenannter_Verlauf_973" x1="43.6" y1="-38.05" x2="417.99" y2="178.11" gradientUnits="userSpaceOnUse"><stop offset="0.15" stop-color="#4093ad"/><stop offset="0.58" stop-color="#4093ad"/><stop offset="0.83" stop-color="#2d82a0"/><stop offset="1" stop-color="#1e7596"/></linearGradient></defs><title>info</title><g id="bg"><g id="Beschreibung"><rect class="cls-1" x="5.21" y="5.04" width="451.17" height="129.97" rx="31.95"/><path class="cls-2" d="M424.43,10a27,27,0,0,1,26.95,27v66.08a27,27,0,0,1-26.95,27H37.16a27,27,0,0,1-26.95-27V37A27,27,0,0,1,37.16,10H424.43m0-10H37.16A37,37,0,0,0,.21,37v66.08a37,37,0,0,0,36.95,37H424.43a37,37,0,0,0,36.95-37V37A37,37,0,0,0,424.43,0Z"/><text class="cls-3" transform="translate(23.99 83.08)">Player 1‘s turn</text></g></g></svg>